<svg version="1.1" id="Layer_1" xmlns="http://www.w3.org/2000/svg" xmlns:xlink="http://www.w3.org/1999/xlink" x="0" y="0" viewBox="0 0 245 136" style="enable-background:new 0 0 245 136" xml:space="preserve"><style>.st4{fill:#ababab}</style><path d="M0 0h245v136H0V0z" style="fill:#f6f7f7"/><defs><path id="SVGID_1_" d="M0 0h245v136H0z"/></defs><clipPath id="SVGID_00000075871332272239653010000001685538545955086748_"><use xlink:href="#SVGID_1_" style="overflow:visible"/></clipPath><g style="clip-path:url(#SVGID_00000075871332272239653010000001685538545955086748_)"><defs><filter id="Adobe_OpacityMaskFilter" filterUnits="userSpaceOnUse" x="0" y="27.8" width="245" height=".4"><feColorMatrix values="1 0 0 0 0 0 1 0 0 0 0 0 1 0 0 0 0 0 1 0"/></filter></defs><mask maskUnits="userSpaceOnUse" x="0" y="27.8" width="245" height=".4" id="c_00000131339708796536986220000018336221103987946920_"><path d="M0 0h245v28H0V0z" style="fill:#fff;filter:url(#Adobe_OpacityMaskFilter)"/></mask><path d="M245 27.8H0v.4h245v-.4z" style="mask:url(#c_00000131339708796536986220000018336221103987946920_);fill:#bfbfbf"/><path class="st4" d="M19 6c5 0 9 4 9 9s-4 9-9 9-9-4-9-9 4-9 9-9zM139 16h27v8h-27v-8zm-33 0h25v8h-25v-8zM10 45h96v16H10V45z"/><path d="M139.1 45.2h95.7v82.7h-95.7V45.2z" style="fill:#e6e6e6;stroke:#a1a1a1;stroke-width:.3"/><path class="st4" d="M10 84h96v9H10v-9zm0-12h96v7H10v-7zm0 25h48v9H10v-9z"/><path d="M11 117.1h30c.5 0 .9.4.9.9v9c0 .5-.4.9-.9.9H11c-.5 0-.9-.4-.9-.9v-9c0-.5.4-.9.9-.9z" style="fill:#ababab;stroke:#8e8e8e;stroke-width:.2"/><path class="st4" d="M173 16h27v8h-27v-8zm35 0h27v8h-27v-8z"/></g></svg>