<svg width="180" height="180" viewBox="0 0 180 180" fill="none" xmlns="http://www.w3.org/2000/svg">
<rect width="180" height="180" rx="42.5" fill="url(#paint0_linear_693_11584)"/>
<path d="M93.055 131.594C101.352 131.02 109.282 127.953 115.805 122.797H93.055V131.594Z" fill="#28D1B4"/>
<path d="M93.055 116.832H122.008C124.277 114.098 126.199 111.094 127.731 107.891H93.0547L93.055 116.832Z" fill="#28D1B4"/>
<path d="M93.055 101.926H130.055C130.926 99.0158 131.469 96.0158 131.668 92.9807H93.0553L93.055 101.926Z" fill="#28D1B4"/>
<path d="M130.055 78.074H93.055V87.0193H131.668C131.469 83.9841 130.926 80.9841 130.055 78.074H130.055Z" fill="#28D1B4"/>
<path d="M122.008 63.168H93.055V72.1133H127.731V72.1094C126.2 68.9063 124.278 65.9024 122.008 63.168L122.008 63.168Z" fill="#28D1B4"/>
<path d="M93.055 48.4062V57.2031H115.805C109.282 52.0469 101.352 48.9804 93.055 48.4062Z" fill="#28D1B4"/>
<path d="M48.332 90C48.3554 100.543 52.3593 110.691 59.551 118.402C66.7385 126.117 76.578 130.828 87.094 131.593V48.405C76.578 49.1706 66.739 53.8816 59.551 61.596C52.3596 69.3069 48.356 79.455 48.332 89.998V90Z" fill="#F3F6FE"/>
<defs>
<linearGradient id="paint0_linear_693_11584" x1="180" y1="0" x2="0" y2="180" gradientUnits="userSpaceOnUse">
<stop stop-color="#1954ED"/>
<stop offset="1" stop-color="#082CAF"/>
</linearGradient>
</defs>
</svg>
