<svg width="21" height="24" viewBox="0 0 21 24" fill="none" xmlns="http://www.w3.org/2000/svg">
	<path d="M7.5 3C7.5 2.17031 6.82969 1.5 6 1.5C5.17031 1.5 4.5 2.17031 4.5 3V6H1.5C0.670312 6 0 6.67031 0 7.5C0 8.32969 0.670312 9 1.5 9H6C6.82969 9 7.5 8.32969 7.5 7.5V3ZM1.5 15C0.670312 15 0 15.6703 0 16.5C0 17.3297 0.670312 18 1.5 18H4.5V21C4.5 21.8297 5.17031 22.5 6 22.5C6.82969 22.5 7.5 21.8297 7.5 21V16.5C7.5 15.6703 6.82969 15 6 15H1.5ZM16.5 3C16.5 2.17031 15.8297 1.5 15 1.5C14.1703 1.5 13.5 2.17031 13.5 3V7.5C13.5 8.32969 14.1703 9 15 9H19.5C20.3297 9 21 8.32969 21 7.5C21 6.67031 20.3297 6 19.5 6H16.5V3ZM15 15C14.1703 15 13.5 15.6703 13.5 16.5V21C13.5 21.8297 14.1703 22.5 15 22.5C15.8297 22.5 16.5 21.8297 16.5 21V18H19.5C20.3297 18 21 17.3297 21 16.5C21 15.6703 20.3297 15 19.5 15H15Z" fill="currentColor"/>
</svg>
