<svg width="19" height="18" viewBox="0 0 19 18" fill="none" xmlns="http://www.w3.org/2000/svg">
	<path d="M3.38249 14.5829C3.00653 14.5829 2.68831 14.4526 2.42783 14.1922C2.16735 13.9317 2.03711 13.6135 2.03711 13.2375V4.76481C2.03711 4.38885 2.16735 4.07063 2.42783 3.81015C2.68831 3.54967 3.00653 3.41943 3.38249 3.41943H10.8419C10.8067 3.60548 10.7878 3.79036 10.7854 3.97406C10.783 4.15777 10.7971 4.345 10.8276 4.53577H3.26788L9.1073 8.25693L11.7951 6.5424C11.9258 6.66545 12.0649 6.77634 12.2122 6.87508C12.3597 6.97381 12.5141 7.06182 12.6753 7.13909L9.1073 9.41625L3.15346 5.60914V13.2375C3.15346 13.3044 3.17491 13.3592 3.21783 13.4022C3.26075 13.4451 3.31564 13.4665 3.38249 13.4665H14.8321C14.899 13.4665 14.9539 13.4451 14.9968 13.4022C15.0397 13.3592 15.0611 13.3044 15.0611 13.2375V7.5313C15.2749 7.48355 15.4736 7.4206 15.6573 7.34245C15.8409 7.26418 16.0143 7.1683 16.1775 7.05481V13.2375C16.1775 13.6135 16.0473 13.9317 15.7868 14.1922C15.5263 14.4526 15.2081 14.5829 14.8321 14.5829H3.38249ZM14.3169 6.12452C13.7492 6.12452 13.2662 5.92531 12.8679 5.5269C12.4695 5.12849 12.2703 4.64548 12.2703 4.07788C12.2703 3.51016 12.4695 3.02709 12.8679 2.62868C13.2662 2.23039 13.7492 2.03125 14.3169 2.03125C14.8846 2.03125 15.3676 2.23039 15.7659 2.62868C16.1643 3.02709 16.3636 3.51016 16.3636 4.07788C16.3636 4.64548 16.1643 5.12849 15.7659 5.5269C15.3676 5.92531 14.8846 6.12452 14.3169 6.12452Z" fill="currentColor"/>
</svg>
