<svg width="21" height="24" viewBox="0 0 21 24" fill="none" xmlns="http://www.w3.org/2000/svg">
	<path d="M1.5 1.5C0.670312 1.5 0 2.17031 0 3V7.5C0 8.32969 0.670312 9 1.5 9C2.32969 9 3 8.32969 3 7.5V4.5H6C6.82969 4.5 7.5 3.82969 7.5 3C7.5 2.17031 6.82969 1.5 6 1.5H1.5ZM3 16.5C3 15.6703 2.32969 15 1.5 15C0.670312 15 0 15.6703 0 16.5V21C0 21.8297 0.670312 22.5 1.5 22.5H6C6.82969 22.5 7.5 21.8297 7.5 21C7.5 20.1703 6.82969 19.5 6 19.5H3V16.5ZM15 1.5C14.1703 1.5 13.5 2.17031 13.5 3C13.5 3.82969 14.1703 4.5 15 4.5H18V7.5C18 8.32969 18.6703 9 19.5 9C20.3297 9 21 8.32969 21 7.5V3C21 2.17031 20.3297 1.5 19.5 1.5H15ZM21 16.5C21 15.6703 20.3297 15 19.5 15C18.6703 15 18 15.6703 18 16.5V19.5H15C14.1703 19.5 13.5 20.1703 13.5 21C13.5 21.8297 14.1703 22.5 15 22.5H19.5C20.3297 22.5 21 21.8297 21 21V16.5Z" fill="black"/>
</svg>
