<svg width="18" height="19" viewBox="0 0 18 19" fill="none" xmlns="http://www.w3.org/2000/svg">
	<path d="M3.57227 9.44481C3.57227 9.44481 4.18622 9.02864 6.02819 9.02864C7.87016 9.02864 9.09807 9.65388 10.94 9.65388C12.782 9.65388 13.3961 9.44481 13.3961 9.44481V3.81851C13.3961 3.81851 12.782 4.02759 10.94 4.02759C9.09807 4.02759 7.87016 3.40234 6.02819 3.40234C4.18622 3.40234 3.57227 3.81851 3.57227 3.81851V9.44481Z" fill="#B32D2E"/>
	<path fill-rule="evenodd" clip-rule="evenodd" d="M3.96947 3.09004C4.40546 2.97183 5.06734 2.86328 6.02839 2.86328C7.00348 2.86328 7.81548 3.02867 8.57604 3.18358L8.59126 3.18668C9.36125 3.34351 10.0799 3.48852 10.9402 3.48852C11.8414 3.48852 12.4309 3.43735 12.7867 3.38889C12.9645 3.36468 13.0833 3.34123 13.153 3.32541C13.1878 3.31751 13.2103 3.31152 13.2217 3.30833L13.2301 3.30589C13.392 3.25305 13.5695 3.2803 13.7082 3.3796C13.8488 3.48021 13.9322 3.64245 13.9322 3.8153V9.44159C13.9322 9.67098 13.7862 9.87492 13.569 9.94885L13.3963 9.44159C13.569 9.94885 13.5688 9.94892 13.5686 9.949L13.5681 9.94916L13.5671 9.9495L13.5649 9.95021L13.56 9.95184L13.5474 9.95583C13.5378 9.95881 13.5257 9.9624 13.511 9.96653C13.4816 9.97477 13.4417 9.98512 13.3902 9.99681C13.2872 10.0202 13.1373 10.049 12.9313 10.0771C12.5196 10.1331 11.8811 10.1865 10.9402 10.1865C9.96516 10.1865 9.15317 10.0211 8.3926 9.86621L8.37738 9.86311C7.6074 9.70629 6.88877 9.56127 6.02839 9.56127C5.14748 9.56127 4.5814 9.66081 4.24991 9.75068C4.08424 9.7956 3.97694 9.83816 3.91784 9.86487C3.88826 9.87824 3.87061 9.8877 3.86363 9.89159C3.86281 9.89205 3.86213 9.89243 3.8616 9.89274C3.69909 9.99691 3.49262 10.0058 3.32145 9.915C3.1462 9.82208 3.03662 9.63995 3.03662 9.44159V3.8153C3.03662 3.6376 3.12472 3.47146 3.27181 3.37175L3.57247 3.8153C3.27181 3.37175 3.27211 3.37154 3.27242 3.37134L3.27304 3.37091L3.27434 3.37004L3.2771 3.3682L3.28334 3.36412L3.2987 3.35444C3.31023 3.34733 3.32437 3.33896 3.34126 3.32953C3.37505 3.31067 3.41976 3.28762 3.47652 3.26197C3.5901 3.21064 3.75141 3.14916 3.96947 3.09004ZM4.10831 4.16639V8.68097C4.54197 8.57734 5.16424 8.48958 6.02839 8.48958C7.00348 8.48958 7.81547 8.65496 8.57604 8.80988L8.59126 8.81298C9.36125 8.9698 10.0799 9.11482 10.9402 9.11482C11.8414 9.11482 12.4309 9.06365 12.7867 9.01518C12.8125 9.01167 12.8371 9.00817 12.8605 9.0047V4.46011C12.4476 4.51263 11.8287 4.56022 10.9402 4.56022C9.96516 4.56022 9.15317 4.39483 8.3926 4.23992L8.37738 4.23682C7.6074 4.07999 6.88877 3.93497 6.02839 3.93497C5.14748 3.93497 4.5814 4.03451 4.24991 4.12439C4.19683 4.13878 4.14974 4.15293 4.10831 4.16639Z" fill="#B32D2E"/>
	<path fill-rule="evenodd" clip-rule="evenodd" d="M4.1088 7.91016V16.8865H3.03711V7.91016H4.1088Z" fill="#B32D2E"/>
</svg>
