<svg width="18" height="19" viewBox="0 0 18 19" fill="none" xmlns="http://www.w3.org/2000/svg">
	<path fill-rule="evenodd" clip-rule="evenodd" d="M4.43627 2.69941C4.87225 2.5812 5.53414 2.47266 6.49519 2.47266C7.47028 2.47266 8.28227 2.63804 9.04284 2.79296L9.05806 2.79606C9.82804 2.95288 11.5466 3.0979 12.407 3.0979C13.3082 3.0979 13.8976 3.04673 14.2535 2.99826C14.4312 2.97405 14.55 2.95061 14.6197 2.93479C14.6546 2.92688 14.6771 2.9209 14.6884 2.91771L14.6968 2.91527C14.8587 2.86242 15.0363 2.88968 15.175 2.98897C15.3155 3.08959 15.3989 3.25182 15.3989 3.42467V10.051C15.3989 10.2804 15.2529 10.4843 15.0358 10.5582L14.8631 10.051C15.0358 10.5582 15.0358 10.5582 15.0358 10.5582L15.0339 10.5589L15.0317 10.5596L15.0268 10.5612L15.0142 10.5652C15.0046 10.5682 14.9925 10.5718 14.9778 10.5759C14.9484 10.5841 14.9085 10.5945 14.857 10.6062C14.754 10.6296 14.6041 10.6584 14.3981 10.6864C13.9864 10.7425 13.3478 10.7959 12.407 10.7959C11.4319 10.7959 9.61997 10.6305 8.8594 10.4756L8.84418 10.4725C8.07419 10.3157 7.35557 10.1706 6.49519 10.1706C5.61427 10.1706 5.0482 10.2702 4.71671 10.3601C4.55104 10.405 4.44374 10.4475 4.38464 10.4742C4.35506 10.4876 4.33741 10.4971 4.33043 10.501L4.3284 10.5021C4.16589 10.6063 3.95942 10.6151 3.78824 10.5244C3.613 10.4315 3.50342 10.2493 3.50342 10.051V3.42467C3.50342 3.24697 3.59151 3.08083 3.73861 2.98112L4.03927 3.42467C3.73861 2.98112 3.73861 2.98112 3.73861 2.98112L3.73984 2.98029L3.74114 2.97942L3.7439 2.97758L3.75014 2.9735L3.7655 2.96381C3.77703 2.9567 3.79117 2.94834 3.80806 2.93891C3.84185 2.92005 3.88656 2.89699 3.94332 2.87134C4.05689 2.82002 4.2182 2.75854 4.43627 2.69941ZM4.57511 3.77577V9.29035C5.00877 9.18671 5.63104 9.09895 6.49519 9.09895C7.47028 9.09895 8.28227 9.26434 9.04284 9.41925L9.05806 9.42235C9.82804 9.57918 11.5466 9.7242 12.407 9.7242C13.3082 9.7242 13.8976 9.67302 14.2535 9.62456C14.2793 9.62104 14.3039 9.61754 14.3272 9.61408V4.06948C13.9144 4.122 13.2955 4.16959 12.407 4.16959C11.4319 4.16959 9.61997 4.0042 8.8594 3.84929L8.84418 3.84619C8.07419 3.68937 7.35557 3.54435 6.49519 3.54435C5.61427 3.54435 5.0482 3.64389 4.71671 3.73376C4.66363 3.74815 4.61654 3.7623 4.57511 3.77577Z" fill="currentColor"/>
	<path fill-rule="evenodd" clip-rule="evenodd" d="M4.57169 8.65918V16.6355H3.5L3.50319 8.65918H4.57169Z" fill="currentColor"/>
</svg>
