<svg width="18" height="19" viewBox="0 0 18 19" fill="none" xmlns="http://www.w3.org/2000/svg">
	<path d="M11.7393 10.5191L10.9035 9.68332C11.0151 9.06697 10.8393 8.51283 10.376 8.0209C9.91286 7.52908 9.34445 7.33899 8.6708 7.45063L7.83503 6.61486C8.00297 6.53944 8.1752 6.48288 8.35171 6.44517C8.52822 6.40747 8.72141 6.38861 8.93128 6.38861C9.77573 6.38861 10.4926 6.6832 11.0817 7.27238C11.6709 7.86157 11.9655 8.57839 11.9655 9.42284C11.9655 9.63271 11.9467 9.82832 11.9089 10.0097C11.8712 10.1909 11.8147 10.3607 11.7393 10.5191ZM14.1065 12.8348L13.285 12.0649C13.7564 11.7051 14.175 11.3113 14.5409 10.8834C14.9068 10.4555 15.22 9.96861 15.4805 9.42284C14.8603 8.17005 13.9703 7.17464 12.8106 6.43661C11.6508 5.69858 10.3577 5.32957 8.93128 5.32957C8.57157 5.32957 8.21806 5.35438 7.87075 5.40399C7.52344 5.45361 7.18234 5.52803 6.84743 5.62726L5.98022 4.76005C6.45057 4.573 6.93097 4.43513 7.42142 4.34644C7.91187 4.25763 8.41515 4.21322 8.93128 4.21322C10.6754 4.21322 12.2483 4.69412 13.6499 5.65592C15.0515 6.61771 16.0739 7.87335 16.717 9.42284C16.4413 10.0878 16.0852 10.7085 15.6487 11.2849C15.2121 11.8612 14.698 12.3778 14.1065 12.8348ZM14.7076 17.14L11.6965 14.1515C11.3148 14.2928 10.8918 14.4083 10.4276 14.4979C9.9634 14.5876 9.46464 14.6325 8.93128 14.6325C7.18234 14.6325 5.60947 14.1516 4.21267 13.1898C2.81575 12.228 1.79336 10.9723 1.14551 9.42284C1.42025 8.76544 1.77519 8.15219 2.21032 7.5831C2.64544 7.01389 3.12442 6.52034 3.64724 6.10245L1.58628 4.01861L2.3707 3.23438L15.4919 16.3555L14.7076 17.14ZM4.43166 6.88669C4.03846 7.19964 3.65605 7.57584 3.28443 8.01531C2.91281 8.45466 2.61201 8.92383 2.38205 9.42284C3.00224 10.6756 3.89222 11.671 5.05198 12.4091C6.21173 13.1471 7.50484 13.5161 8.93128 13.5161C9.27003 13.5161 9.60735 13.4875 9.94325 13.4302C10.279 13.373 10.5638 13.3139 10.7976 13.2528L9.8558 12.2881C9.72891 12.3396 9.58198 12.3806 9.41503 12.4111C9.24807 12.4417 9.08682 12.4571 8.93128 12.4571C8.08682 12.4571 7.37001 12.1625 6.78082 11.5733C6.19164 10.9841 5.89705 10.2673 5.89705 9.42284C5.89705 9.27213 5.91237 9.11448 5.94301 8.94988C5.97352 8.78528 6.01451 8.63476 6.06599 8.49832L4.43166 6.88669Z" fill="currentColor"/>
</svg>
